<svg viewBox="0 0 140 117" xmlns="http://www.w3.org/2000/svg" fill-rule="evenodd" clip-rule="evenodd" stroke-miterlimit="22.9256">
  <path d="M35.93343 61.149428s-4.6396-1.531068-5.405134-6.797014c-.788732-5.265946-1.62386-7.098588-1.62386-7.098588s5.706708 1.73985 6.37945 7.817726l.649544 6.077876M60.6393 81.77245s-2.458988 4.222036-7.77133 3.897264c-5.312342-.301574-7.260974.139188-7.260974.139188s2.876552-5.242748 8.954428-4.6396l6.077876.603148M40.178664 71.820508s-5.33554.510356-8.46727-4.430818c-3.13173-4.941174-4.801986-6.402648-4.801986-6.402648s6.518638-.788732 9.905546 5.033966l3.36371 5.7995M49.597052 78.965492s-4.129244 3.433304-9.51118 1.113504-7.562548-2.574978-7.562548-2.574978 4.941174-4.338026 11.01905-1.438276l6.054678 2.89975M35.539064 51.081496s-3.13173-3.734878-1.020712-8.629656c2.111018-4.894778 2.342998-6.889806 2.342998-6.889806s3.94366 4.500412 1.322286 9.998338l-2.644572 5.521124M40.665822 49.086468s-4.222036 2.458988-3.897264 7.77133c.324772 5.312342-.139188 7.260974-.139188 7.260974s5.242748-2.89975 4.6396-8.977626l-.603148-6.054678M47.76441 71.379746s.023198 4.384422 4.314828 6.518638c4.29163 2.134216 5.613916 3.386908 5.613916 3.386908s.092792-5.381936-4.917976-7.632142l-5.010768-2.273404" fill="#056b52" fill-rule="nonzero"/>
  <path d="M41.50095 61.984556s-2.714166 4.05965-.11599 8.69925c2.621374 4.6396 3.062136 6.61143 3.062136 6.61143s3.456502-4.894778.255178-10.09113l-3.201324-5.21955" fill="#056b52" fill-rule="nonzero"/>
  <path d="M35.423074 50.014388S32.384136 74.975436 50.43218 79.522244c21.040586 5.289144 25.74978 13.663622 25.74978 13.663622s1.554266-.417564.371168-1.879038C71.333578 84.90418 58.064322 80.26458 50.2002 78.663918c-7.840924-1.62386-15.913828-10.694278-14.38276-29.879024l-.394366 1.229494zM104.738698 43.286968c-.092792.301574-.208782.533554-.394366.719138-.023198.023198-.023198.023198-.023198.046396-.139188.162386-.23198.440762-.185584.742336.023198.185584.069594.34797.162386.510356 0 0 0 .023198.023198.023198.11599.208782.208782.46396.255178.742336.023198.092792.023198.185584.046396.301574.046396.533554-.069594.974316-.278376 1.252692-.139188.185584-.324772.278376-.533554.324772-.510356.185584-.34797.881524-.34797.881524v.023198c.023198.11599.046396.255178.069594.371168.092792.974316-.487158 1.50787-1.27589 1.206296s-1.461474-1.1599-1.531068-1.97183v-.324772s.069594-.556752-.487158-.904722c-.23198-.11599-.417564-.255178-.603148-.440762-.278376-.301574-.440762-.649544-.46396-1.04391v-.208782c.023198-.185584.069594-.371168.162386-.510356v-.023198c.069594-.11599.092792-.23198.092792-.371168-.023198-.23198-.11599-.440762-.301574-.556752-.023198 0-.023198-.023198-.046396-.023198-.185584-.139188-.34797-.301574-.46396-.510356-.162386-.23198-.23198-.533554-.255178-.835128 0-.301574.069594-.603148.185584-.881524.092792-.185584.208782-.371168.34797-.533554l.023198-.023198c.139188-.139188.208782-.34797.208782-.57995 0-.11599-.023198-.208782-.069594-.301574-.023198-.023198-.046396-.046396-.046396-.092792-.023198-.046396-.046396-.069594-.046396-.11599-.046396-.092792-.069594-.208782-.069594-.324772-.023198-.394366.162386-.81193.440762-1.067108.069594-.069594.162386-.139188.255178-.185584.371168-.255178.417564-.672742.417564-.858326v-.301574c.023198-.417564.185584-.835128.417564-1.183098 0 0 .255178-.417564.626346-.626346.371168-.208782.603148-.11599.672742-.069594.255178.11599.46396.417564.57995.835128.023198.069594.023198.139188.046396.208782v.11599c.023198.208782.139188.603148.533554.626346.092792-.023198.185584 0 .278376.023198.301574.11599.556752.487158.603148 1.04391.023198.162386.023198.324772 0 .487158 0 .069594-.023198.11599-.023198.185584 0 .046396-.023198.092792-.046396.139188-.023198.139188-.023198.278376-.023198.417564.023198.278376.139188.510356.301574.649544 0 0 .023198.023198.046396.023198.162386.139188.324772.34797.440762.57995.185584.324772.301574.742336.34797 1.183098.092792.417564.046396.835128-.069594 1.206296M83.860498 86.458446c-.255178-.162386-.440762-.371168-.57995-.57995 0-.023198-.023198-.023198-.023198-.046396-.11599-.185584-.34797-.34797-.649544-.394366-.185584-.046396-.371168-.023198-.533554 0h-.023198c-.255178.046396-.510356.069594-.788732.046396-.092792 0-.185584-.023198-.301574-.046396-.510356-.11599-.904722-.34797-1.113504-.649544-.11599-.185584-.185584-.394366-.139188-.603148-.023198-.556752-.742336-.57995-.742336-.57995h-.023198c-.11599 0-.255178-.023198-.371168-.046396-.951118-.208782-1.299088-.904722-.765534-1.577464.510356-.672742 1.531068-1.067108 2.3198-.881524.092792.023198.208782.046396.278376.092792h.023198s.510356.23198 1.020712-.185584c.162386-.185584.371168-.324772.603148-.440762.34797-.162386.742336-.23198 1.113504-.139188l.208782.069594c.185584.069594.324772.185584.440762.301574l.023198.023198c.092792.092792.185584.162386.324772.185584.23198.046396.440762 0 .626346-.11599.023198 0 .023198-.023198.046396-.023198.185584-.139188.394366-.255178.626346-.301574.278376-.069594.57995-.069594.858326 0 .301574.069594.556752.23198.788732.440762.162386.139188.301574.324772.394366.510356 0 .023198.023198.023198.023198.046396.11599.162386.278376.301574.487158.34797.11599.023198.208782.023198.301574.023198.023198 0 .069594-.023198.092792-.023198.046396 0 .092792-.023198.11599-.023198.11599 0 .23198 0 .34797.046396.394366.092792.719138.394366.904722.742336.046396.092792.092792.208782.11599.301574.139188.440762.533554.603148.69594.649544h.023198c.023198 0 .046396.023198.069594.023198.069594.023198.139188.046396.185584.069594.394366.162386.742336.417564 1.020712.742336 0 0 .324772.371168.417564.788732.092792.417564-.069594.603148-.139188.672742-.185584.208782-.533554.324772-.974316.301574-.069594 0-.139188-.023198-.23198-.023198-.023198 0-.046396 0-.069594-.023198h-.023198c-.208782-.023198-.626346-.046396-.765534.324772-.023198.092792-.046396.185584-.11599.255178-.185584.255178-.626346.371168-1.1599.278376-.162386-.023198-.324772-.092792-.46396-.139188-.046396-.023198-.11599-.046396-.162386-.092792-.046396-.023198-.092792-.046396-.11599-.069594-.11599-.069594-.255178-.11599-.394366-.139188-.278376-.046396-.533554-.023198-.719138.092792-.023198 0-.023198.023198-.046396.023198-.185584.11599-.417564.208782-.69594.255178-.371168.069594-.788732.069594-1.229494 0-.417564-.139188-.81193-.301574-1.136702-.510356M96.758586 58.319272c.162386.208782.371168.371168.57995.46396.023198 0 .023198 0 .046396.023198.185584.092792.324772.278376.417564.533554.046396.162386.069594.324772.046396.46396v.023198c-.023198.23198 0 .46396.046396.69594.023198.092792.046396.162386.069594.255178.139188.46396.394366.788732.672742.951118.185584.092792.371168.11599.556752.069594.487158-.023198.603148.603148.603148.603148v.023198c.023198.11599.046396.23198.069594.324772.278376.835128.92792 1.067108 1.484672.556752.556752-.510356.81193-1.484672.57995-2.157414-.023198-.092792-.069594-.162386-.11599-.255178v-.023198s-.255178-.440762.092792-.92792c.139188-.162386.255178-.371168.34797-.57995.11599-.324772.139188-.69594.023198-1.020712-.023198-.069594-.046396-.11599-.069594-.185584-.092792-.139188-.185584-.278376-.324772-.371168l-.023198-.023198c-.092792-.069594-.162386-.162386-.208782-.278376-.069594-.185584-.046396-.394366.046396-.556752 0-.023198.023198-.023198.023198-.046396.11599-.185584.185584-.371168.208782-.57995.046396-.255178.023198-.510356-.069594-.765534s-.255178-.487158-.46396-.649544c-.139188-.139188-.301574-.23198-.487158-.324772 0 0-.023198 0-.046396-.023198-.162386-.069594-.301574-.23198-.371168-.417564-.023198-.092792-.046396-.185584-.046396-.255178 0-.023198 0-.046396.023198-.092792v-.11599c0-.092792-.023198-.208782-.069594-.301574-.11599-.324772-.417564-.603148-.742336-.742336-.092792-.046396-.185584-.069594-.278376-.069594-.394366-.092792-.57995-.417564-.649544-.57995v-.023198c0-.023198-.023198-.046396-.023198-.069594-.023198-.046396-.046396-.11599-.069594-.162386-.162386-.324772-.440762-.626346-.742336-.835128 0 0-.34797-.255178-.742336-.301574-.371168-.046396-.533554.11599-.57995.185584-.185584.185584-.255178.510356-.185584.904722 0 .069594.023198.139188.046396.185584 0 .023198.023198.046396.023198.069594v.023198c.046396.185584.092792.556752-.23198.69594-.092792.023198-.162386.069594-.208782.11599-.208782.208782-.278376.603148-.139188 1.067108.046396.139188.092792.278376.162386.394366.023198.046396.046396.092792.092792.139188.023198.046396.046396.069594.069594.092792.069594.092792.11599.208782.162386.34797.069594.23198.069594.46396-.023198.649544 0 .023198-.023198.023198-.023198.046396-.092792.185584-.139188.394366-.162386.626346-.023198.324772 0 .719138.11599 1.113504.092792.487158.278376.835128.487158 1.090306" fill="#056b52" fill-rule="nonzero"/>
  <path d="M82.955776 74.46508c-.11599.255178-.185584.487158-.185584.719138v.046396c0 .208782-.11599.417564-.301574.603148-.11599.11599-.255178.185584-.417564.255178h-.023198c-.208782.069594-.417564.185584-.626346.324772-.069594.046396-.139188.11599-.208782.162386-.34797.324772-.533554.69594-.556752 1.020712 0 .208782.046396.394366.162386.533554.23198.440762-.301574.788732-.301574.788732l-.023198.023198c-.092792.069594-.185584.139188-.255178.208782-.649544.603148-.556752 1.299088.139188 1.577464.69594.278376 1.670256.092792 2.20381-.394366.069594-.069594.11599-.139188.185584-.208782 0 0 0-.023198.023198-.023198 0 0 .278376-.417564.858326-.324772.208782.069594.440762.092792.672742.069594.34797-.023198.69594-.162386.92792-.417564.046396-.046396.092792-.092792.11599-.139188.092792-.139188.162386-.278376.208782-.440762v-.023198c.023198-.11599.069594-.208782.162386-.301574.139188-.139188.34797-.208782.533554-.185584h.046396c.208782.023198.417564 0 .626346-.046396.255178-.069594.46396-.208782.672742-.394366.185584-.208782.324772-.440762.394366-.69594.046396-.185584.092792-.371168.069594-.57995v-.046396c0-.185584.069594-.371168.208782-.510356.069594-.069594.139188-.11599.23198-.139188.023198 0 .046396-.023198.092792-.023198s.069594-.023198.092792-.046396c.092792-.046396.162386-.11599.255178-.185584.255178-.255178.371168-.626346.34797-.997514 0-.092792-.023198-.185584-.046396-.278376-.092792-.394366.11599-.69594.23198-.835128 0 0 .023198 0 .023198-.023198l.046396-.046396c.046396-.046396.092792-.092792.11599-.139188.23198-.301574.371168-.672742.440762-1.04391 0 0 .092792-.440762-.046396-.788732-.11599-.371168-.34797-.440762-.417564-.440762-.255178-.069594-.556752 0-.881524.23198-.046396.046396-.11599.069594-.162386.11599-.023198.023198-.046396.023198-.046396.046396l-.023198.023198c-.139188.11599-.46396.324772-.742336.092792-.046396-.069594-.11599-.11599-.208782-.139188-.278376-.11599-.672742 0-1.020712.324772-.11599.092792-.208782.208782-.278376.324772-.023198.046396-.069594.092792-.092792.139188-.023198.046396-.046396.069594-.069594.11599-.069594.092792-.139188.208782-.23198.301574-.185584.162386-.394366.255178-.57995.255178h-.046396c-.208782 0-.417564.046396-.649544.11599-.324772.11599-.649544.324772-.951118.57995-.324772.255178-.556752.556752-.69594.858326M108.635962 56.13866c-.255178.162386-.510356.278376-.765534.324772h-.046396c-.208782.046396-.440762.185584-.603148.440762-.092792.162386-.162386.324772-.208782.487158v.023198c-.046396.255178-.139188.487158-.255178.742336-.046396.092792-.092792.162386-.162386.255178-.301574.440762-.649544.719138-1.020712.788732-.208782.046396-.440762.023198-.626346-.092792-.510356-.185584-.81193.46396-.81193.46396s0 .023198-.023198.023198c-.046396.11599-.11599.23198-.185584.324772-.556752.81193-1.322286.858326-1.763048.139188-.417564-.719138-.417564-1.832642.046396-2.482186.069594-.092792.11599-.162386.185584-.23198 0 0 .023198 0 .023198-.023198 0 0 .417564-.394366.185584-1.020712-.11599-.23198-.162386-.46396-.185584-.719138-.023198-.394366.069594-.788732.301574-1.090306.046396-.069594.092792-.11599.139188-.162386.139188-.139188.278376-.23198.46396-.301574h.023198c.11599-.046396.208782-.11599.301574-.23198.139188-.185584.162386-.417564.11599-.626346 0-.023198 0-.023198-.023198-.046396-.069594-.23198-.092792-.46396-.046396-.69594.023198-.278376.139188-.556752.324772-.81193s.417564-.440762.69594-.556752c.185584-.092792.394366-.162386.626346-.185584h.046396c.185584-.046396.394366-.139188.510356-.324772.069594-.092792.11599-.185584.11599-.278376 0-.023198 0-.069594.023198-.092792 0-.046396.023198-.092792.023198-.11599.023198-.092792.092792-.208782.162386-.301574.23198-.324772.626346-.510356 1.020712-.556752.11599-.023198.208782 0 .324772 0 .46396.023198.742336-.255178.858326-.417564l.023198-.023198c.023198-.023198.023198-.046396.046396-.069594.046396-.046396.092792-.11599.139188-.162386.278376-.301574.672742-.533554 1.067108-.672742 0 0 .46396-.162386.881524-.092792s.533554.301574.57995.371168c.139188.255178.11599.626346-.092792 1.020712-.023198.069594-.069594.139188-.11599.185584-.023198.023198-.023198.046396-.046396.069594l-.023198.023198c-.092792.185584-.278376.556752.023198.81193.092792.046396.139188.11599.185584.185584.162386.278376.11599.742336-.185584 1.183098-.092792.139188-.185584.255178-.301574.371168-.046396.046396-.092792.092792-.139188.11599-.046396.023198-.069594.069594-.11599.092792-.092792.092792-.208782.185584-.278376.301574-.162386.23198-.208782.487158-.185584.69594v.046396c.046396.23198.023198.46396-.023198.742336-.069594.371168-.23198.765534-.46396 1.136702-.139188.510356-.440762.81193-.765534 1.020712M97.338536 71.10137c-.162386.23198-.34797.417564-.533554.533554-.023198 0-.023198.023198-.046396.023198-.185584.11599-.324772.301574-.371168.57995-.046396.162386-.046396.324772-.023198.487158v.023198c.046396.23198.046396.46396.023198.719138 0 .092792-.023198.185584-.046396.278376-.11599.46396-.34797.835128-.626346 1.020712-.162386.11599-.371168.162386-.556752.11599-.510356 0-.556752.672742-.556752.672742v.023198c0 .11599-.023198.23198-.046396.34797-.208782.881524-.858326 1.1599-1.461474.672742-.603148-.487158-.951118-1.438276-.765534-2.157414.023198-.092792.046396-.185584.092792-.255178 0 0 0-.023198.023198-.023198 0 0 .23198-.46396-.162386-.92792-.162386-.162386-.301574-.34797-.394366-.556752-.139188-.324772-.185584-.69594-.092792-1.04391.023198-.069594.046396-.11599.069594-.185584.069594-.162386.162386-.301574.301574-.394366l.023198-.023198c.092792-.069594.139188-.185584.185584-.301574.046396-.208782.023198-.417564-.092792-.57995 0-.023198-.023198-.023198-.023198-.046396-.11599-.185584-.208782-.371168-.278376-.57995-.069594-.255178-.069594-.533554.023198-.788732.069594-.278376.23198-.510356.417564-.69594.139188-.139188.301574-.255178.46396-.371168.023198 0 .023198-.023198.046396-.023198.162386-.092792.278376-.255178.34797-.440762.023198-.092792.023198-.185584.023198-.278376 0-.023198-.023198-.046396-.023198-.092792v-.11599c0-.092792 0-.208782.046396-.301574.092792-.34797.371168-.649544.69594-.81193.092792-.046396.185584-.069594.278376-.092792.394366-.11599.556752-.46396.626346-.626346v-.023198c0-.023198 0-.046396.023198-.069594.023198-.069594.046396-.11599.069594-.185584.139188-.34797.417564-.672742.69594-.92792 0 0 .34797-.301574.719138-.371168.394366-.069594.556752.069594.626346.139188.185584.185584.301574.487158.255178.904722 0 .069594-.023198.139188-.023198.208782 0 .023198 0 .046396-.023198.069594v.023198c-.023198.185584-.046396.57995.278376.69594.092792.023198.162386.046396.23198.092792.23198.185584.324772.603148.23198 1.090306-.023198.139188-.092792.278376-.139188.417564l-.069594.139188c-.023198.046396-.046396.069594-.069594.11599-.069594.11599-.11599.23198-.139188.34797-.046396.255178-.023198.487158.069594.649544 0 .023198.023198.023198.023198.046396.11599.185584.185584.394366.23198.626346.069594.34797.046396.742336-.046396 1.136702-.185584.46396-.324772.81193-.533554 1.090306M106.617736 69.454312c-.324772.11599-.626346.139188-.904722.11599h-.046396c-.23198-.023198-.533554.069594-.788732.278376-.162386.139188-.278376.278376-.371168.46396 0 0 0 .023198-.023198.023198-.11599.255178-.301574.487158-.487158.69594l-.23198.23198c-.440762.371168-.92792.556752-1.322286.533554-.255178-.023198-.46396-.11599-.626346-.301574-.487158-.34797-1.020712.23198-1.020712.23198l-.023198.023198c-.092792.11599-.185584.208782-.301574.278376-.835128.69594-1.670256.487158-1.902236-.417564-.23198-.904722.139188-2.064622.835128-2.598176.092792-.069594.185584-.139188.278376-.185584 0 0 .023198 0 .023198-.023198 0 0 .556752-.278376.533554-.997514-.046396-.278376-.023198-.556752.023198-.81193.092792-.417564.324772-.81193.649544-1.067108.069594-.046396.139188-.092792.185584-.139188.185584-.092792.371168-.162386.57995-.162386h.023198c.139188 0 .278376-.069594.394366-.162386.208782-.162386.301574-.394366.324772-.603148v-.046396c0-.255178.069594-.510356.162386-.742336.11599-.301574.324772-.556752.603148-.742336.278376-.208782.57995-.324772.904722-.371168.23198-.046396.46396-.046396.719138 0h.046396c.208782.023198.46396-.046396.649544-.185584.092792-.069594.162386-.162386.208782-.255178.023198-.023198.023198-.069594.046396-.092792.023198-.046396.046396-.069594.069594-.11599.069594-.092792.162386-.185584.255178-.278376.34797-.255178.835128-.34797 1.252692-.278376.11599.023198.23198.046396.324772.11599.487158.162386.881524-.046396 1.04391-.162386l.023198-.023198c.023198-.023198.046396-.023198.069594-.046396.069594-.046396.11599-.092792.185584-.11599.394366-.23198.881524-.34797 1.322286-.371168 0 0 .533554-.023198.951118.185584.417564.208782.46396.46396.487158.57995.069594.301574-.069594.69594-.394366 1.04391-.046396.069594-.11599.11599-.162386.185584l-.092792.092792c-.162386.162386-.46396.510356-.23198.881524.069594.069594.11599.162386.139188.255178.092792.34797-.11599.81193-.556752 1.206296-.139188.11599-.278376.208782-.440762.301574-.069594.023198-.11599.069594-.185584.092792-.046396.023198-.092792.046396-.139188.046396-.139188.069594-.278376.139188-.394366.23198-.23198.208782-.371168.440762-.394366.672742v.046396c-.023198.255178-.11599.510356-.255178.765534-.185584.371168-.487158.742336-.858326 1.067108-.34797.301574-.765534.533554-1.1599.649544" fill="#056b52" fill-rule="nonzero"/>
  <path d="M97.152952 82.050826c-.324772-.092792-.57995-.255178-.788732-.440762l-.046396-.046396c-.185584-.162386-.46396-.255178-.81193-.23198-.208782.023198-.394366.069594-.556752.162386 0 0-.023198 0-.023198.023198-.23198.139188-.510356.23198-.81193.278376-.11599.023198-.208782.023198-.324772.046396-.57995.046396-1.067108-.092792-1.368682-.324772-.185584-.162386-.301574-.371168-.34797-.603148-.185584-.57995-.951118-.394366-.974316-.394366h-.046396l-.417564.069594c-1.067108.069594-1.647058-.556752-1.299088-1.438276.34797-.858326 1.299088-1.600662 2.180612-1.647058.11599 0 .23198 0 .324772.023198h.023198s.626346.092792.997514-.510356c.11599-.255178.301574-.46396.487158-.649544.324772-.301574.719138-.487158 1.136702-.487158h.23198c.208782.023198.394366.092792.556752.185584h.023198c.11599.069594.255178.11599.417564.092792.255178 0 .487158-.139188.626346-.324772 0-.023198.023198-.023198.023198-.046396.162386-.208782.34797-.394366.556752-.510356.278376-.162386.57995-.255178.904722-.255178.34797 0 .672742.069594.951118.208782.208782.092792.417564.23198.57995.394366.023198 0 .023198.023198.046396.023198.162386.139188.394366.23198.626346.23198.11599 0 .23198-.023198.324772-.069594.023198-.023198.069594-.046396.092792-.046396.046396-.023198.092792-.046396.11599-.046396.11599-.046396.23198-.069594.371168-.069594.440762-.023198.881524.185584 1.183098.487158.092792.092792.162386.185584.208782.278376.278376.417564.742336.46396.951118.46396h.324772c.46396.046396.92792.208782 1.299088.46396 0 0 .46396.278376.672742.69594.23198.417564.11599.649544.069594.765534-.139188.278376-.46396.510356-.92792.626346-.069594.023198-.162386.023198-.23198.046396h-.139188c-.23198.023198-.672742.139188-.69594.57995.023198.092792 0 .208782-.046396.301574-.11599.324772-.556752.603148-1.136702.649544-.185584.023198-.34797.023198-.533554 0-.069594 0-.139188-.023198-.208782-.046396-.046396-.023198-.092792-.023198-.162386-.046396-.139188-.023198-.301574-.046396-.46396-.023198-.301574.023198-.556752.139188-.719138.324772l-.046396.046396c-.162386.185584-.371168.34797-.649544.487158-.371168.185584-.81193.324772-1.299088.371168-.371168.092792-.835128.069594-1.229494-.069594" fill="#056b52" fill-rule="nonzero"/>
  <path fill="#056b52" d="M101.050216 59.38638h1.020712v1.600662h-1.020712z"/>
  <path d="M102.62768 50.014388s3.038938 24.961048-15.009106 29.507856c-21.040586 5.289144-25.726582 13.663622-25.726582 13.663622s-1.554266-.417564-.371168-1.879038c5.196352-6.402648 18.465608-11.01905 26.32973-12.64291 7.840924-1.62386 15.913828-10.694278 14.38276-29.879024l.394366 1.229494z" fill="#056b52" fill-rule="nonzero"/>
  <path d="M49.27228 24.032628v22.15409h1.252692V25.262122h36.954414v20.924596h1.229494v-22.15409h-39.4366zM49.27228 46.186718v12.318138c0 5.45153 4.40762 9.85915 9.85915 9.85915h4.917976c2.111018 0 3.897264 1.322286 4.593204 3.178126.046396.139188.162386.255178.324772.255178s.278376-.11599.324772-.255178c.719138-1.85584 2.505384-3.178126 4.593204-3.178126h4.917976c5.45153 0 9.85915-4.40762 9.85915-9.85915V46.186718H49.27228z" fill="#d61f47" fill-rule="nonzero"/>
  <path d="M11.668322 115.06158c-.81193.371168-2.134216.904722-4.593204.904722-5.196352 0-7.07539-3.13173-7.07539-8.536864 0-4.361224 1.345484-7.910518 6.681024-7.910518 2.134216 0 3.688482.371168 4.801986.719138l.139188 3.990056h-.69594c-.092792-1.229494-1.415078-3.572492-3.990056-3.572492-3.526096 0-4.106046 3.758076-4.106046 6.750618 0 3.781274 1.322286 7.19138 4.6396 7.19138 2.273404 0 3.456502-.719138 4.198838-1.229494v1.693454zM13.245786 115.200768c1.415078 0 1.786246-.440762 1.786246-2.08782v-5.637114c0-1.693454-.858326-1.925434-1.786246-1.925434v-.533554l4.222036-.57995v8.652854c0 1.647058.394366 2.08782 1.786246 2.08782v.533554h-6.008282v-.510356zm1.554266-14.173978c0-.835128.649544-1.484672 1.484672-1.484672s1.50787.649544 1.50787 1.484672c0 .858326-.672742 1.50787-1.50787 1.50787-.835128 0-1.484672-.649544-1.484672-1.50787zM27.303774 115.711124c-.440762.162386-.904722.255178-1.368682.255178-2.111018 0-3.874066-.324772-3.874066-3.13173v-7.144984h-1.948632v-.672742c2.830156 0 3.549294-2.458988 3.665284-4.29163h.69594v3.966858h3.108532v.974316h-3.108532v7.144984c0 1.600662.69594 2.064622 1.948632 2.064622.301574 0 .603148-.046396.881524-.139188v.974316zM35.771044 115.711124c-.440762.162386-.904722.255178-1.368682.255178-2.111018 0-3.874066-.324772-3.874066-3.13173v-7.144984h-1.948632v-.672742c2.830156 0 3.549294-2.458988 3.665284-4.29163h.69594v3.966858h3.108532v.974316h-3.108532v7.144984c0 1.600662.69594 2.064622 1.948632 2.064622.324772 0 .603148-.046396.881524-.139188v.974316zM48.506746 115.548738c-.81193.255178-1.50787.440762-2.505384.440762-1.438276 0-1.716652-.835128-1.902236-1.62386-.487158.533554-1.50787 1.62386-3.270918 1.62386-1.647058 0-3.13173-1.183098-3.13173-2.737364 0-3.36371 4.917976-3.572492 6.402648-3.642086v-1.206296c0-1.299088 0-3.108532-1.647058-3.108532-2.366196 0-.742336 2.876552-2.922948 2.876552-.672742 0-1.368682-.394366-1.368682-1.229494 0-1.716652 2.412592-2.458988 4.384422-2.458988 3.01574 0 3.966858 1.206296 3.966858 3.920462v4.75559c0 1.461474.278376 1.995028 1.067108 1.995028.301574 0 .626346-.11599.92792-.208782v.603148zm-4.430818-5.057164c-.904722.023198-3.781274.162386-3.781274 2.412592 0 .92792.510356 1.693454 1.50787 1.693454 1.368682 0 2.273404-.974316 2.273404-2.737364v-1.368682zM64.119 114.01767h-.046396c-.533554.788732-1.345484 1.97183-3.4797 1.97183-3.270918 0-4.05965-2.946146-4.05965-5.753104 0-3.224522 1.206296-5.753104 4.52361-5.753104 1.763048 0 2.528582 1.020712 2.992542 1.716652h.046396v-4.106046c0-1.693454-.858326-1.925434-1.809444-1.925434v-.533554l4.222036-.57995v13.872404c0 1.693454.835128 1.925434 1.786246 1.925434v.533554l-4.17564.603148v-1.97183zm-2.412592.603148c2.018226 0 2.412592-2.08782 2.412592-4.384422 0-2.922948-.556752-4.593204-2.412592-4.593204-1.995028 0-2.528582 2.342998-2.528582 4.593204 0 2.458988.533554 4.384422 2.528582 4.384422zM69.10657 115.200768c1.415078 0 1.809444-.440762 1.809444-2.08782v-5.637114c0-1.693454-.858326-1.925434-1.809444-1.925434v-.533554l4.222036-.57995v8.652854c0 1.647058.394366 2.08782 1.786246 2.08782v.533554H69.10657v-.510356zm1.554266-14.173978c0-.835128.649544-1.484672 1.484672-1.484672s1.50787.649544 1.50787 1.484672c0 .858326-.672742 1.50787-1.50787 1.50787-.835128 0-1.484672-.649544-1.484672-1.50787zM83.326944 115.131174c1.670256 0 2.041424-.34797 2.041424-2.227008v-10.299912c0-1.879038-.34797-2.227008-2.041424-2.227008v-.603148h6.704222v.603148c-1.670256 0-2.041424.34797-2.041424 2.227008v10.299912c0 1.368682.208782 1.716652 1.600662 1.716652h1.763048c1.925434 0 2.598176-.81193 2.992542-2.690968h.69594l-.139188 3.781274h-11.599v-.57995h.023198zM103.90357 113.159344h-.069594c-.510356.951118-1.531068 2.830156-3.642086 2.830156-2.690968 0-3.178126-1.368682-3.178126-3.178126v-5.289144c0-1.693454-.858326-1.925434-1.786246-1.925434v-.533554l4.222036-.57995v6.37945c0 2.89975.440762 3.665284 1.809444 3.665284 1.252692 0 2.644572-2.482186 2.644572-3.966858v-3.038938c0-1.693454-.858326-1.925434-1.786246-1.925434v-.533554l4.222036-.57995v8.490468c0 1.693454.881524 1.925434 1.786246 1.925434v.533554l-4.222036.57995v-2.853354zM117.567192 115.40955c-.603148.278376-1.62386.57995-3.062136.57995-3.82767 0-5.613916-2.3198-5.613916-6.26346 0-2.853354 1.322286-5.242748 4.894778-5.242748 1.879038 0 3.874066.92792 3.874066 2.458988 0 .881524-.742336 1.299088-1.461474 1.299088-1.461474 0-1.299088-1.670256-1.461474-2.157414-.23198-.719138-.672742-.788732-1.1599-.788732-1.484672 0-2.08782 1.484672-2.08782 3.920462 0 2.389394.835128 5.68351 3.94366 5.68351.858326 0 1.716652-.23198 2.134216-.34797v.858326zM127.774312 115.40955c-.603148.278376-1.62386.57995-3.062136.57995-3.82767 0-5.637114-2.296602-5.637114-6.240262 0-2.853354 1.322286-5.242748 4.894778-5.242748 1.879038 0 3.874066.92792 3.874066 2.458988 0 .881524-.742336 1.299088-1.461474 1.299088-1.461474 0-1.299088-1.670256-1.461474-2.157414-.23198-.719138-.672742-.788732-1.1599-.788732-1.484672 0-2.08782 1.484672-2.08782 3.920462 0 2.389394.835128 5.68351 3.94366 5.68351.858326 0 1.716652-.23198 2.134216-.34797v.835128h.023198zM139.999658 115.548738c-.81193.255178-1.50787.440762-2.505384.440762-1.438276 0-1.716652-.835128-1.902236-1.62386-.487158.533554-1.50787 1.62386-3.270918 1.62386-1.647058 0-3.13173-1.183098-3.13173-2.737364 0-3.36371 4.917976-3.572492 6.402648-3.642086v-1.206296c0-1.299088 0-3.108532-1.647058-3.108532-2.366196 0-.742336 2.876552-2.922948 2.876552-.672742 0-1.368682-.394366-1.368682-1.229494 0-1.716652 2.412592-2.458988 4.384422-2.458988 3.01574 0 3.966858 1.206296 3.966858 3.920462v4.75559c0 1.461474.278376 1.995028 1.067108 1.995028.301574 0 .626346-.11599.92792-.208782v.603148zm-4.430818-5.057164c-.904722.023198-3.781274.162386-3.781274 2.412592 0 .92792.510356 1.693454 1.50787 1.693454 1.368682 0 2.273404-.974316 2.273404-2.737364v-1.368682zM42.939226 102.859432l-.440762-2.180612c-.208782-.951118-.324772-1.577464-1.27589-1.577464-.57995 0-1.067108.208782-1.067108.788732 0 .278376.139188.556752.371168.881524l1.252692 2.08782h1.1599z" fill="#242121" fill-rule="nonzero"/>
  <path d="M83.767706 5.520624c-1.020712 0-1.85584.835128-1.85584 1.85584 0 .719138.394366 1.322286.997514 1.62386-.626346.69594-1.50787 1.136702-2.528582 1.136702-1.27589 0-2.389394-.69594-2.946146-1.73985.255178.11599.533554.208782.835128.208782 1.020712 0 1.85584-.835128 1.85584-1.85584 0-.835128-.556752-1.531068-1.322286-1.763048.046396-.139188.069594-.301574.069594-.440762 0-1.020712-.835128-1.85584-1.85584-1.85584s-1.85584.835128-1.85584 1.85584c0 .162386.023198.301574.069594.46396-.742336.23198-1.299088.92792-1.299088 1.763048 0 1.020712.835128 1.85584 1.85584 1.85584.278376 0 .556752-.069594.788732-.185584-.57995 1.020712-1.670256 1.716652-2.946146 1.716652-1.879038 0-3.386908-1.50787-3.386908-3.386908 0-.092792.023198-.162386.023198-.23198 1.252692-.487158 2.134216-1.716652 2.134216-3.154928 0-1.879038-1.50787-3.386908-3.386908-3.386908S65.62687 1.50737 65.62687 3.386408c0 1.438276.881524 2.644572 2.134216 3.154928 0 .092792.023198.162386.023198.23198 0 1.879038-1.50787 3.386908-3.386908 3.386908-1.27589 0-2.366196-.69594-2.946146-1.716652.23198.11599.510356.185584.788732.185584 1.020712 0 1.85584-.835128 1.85584-1.85584 0-.835128-.556752-1.50787-1.299088-1.763048.046396-.139188.069594-.301574.069594-.46396 0-1.020712-.835128-1.85584-1.85584-1.85584s-1.85584.835128-1.85584 1.85584c0 .162386.023198.301574.069594.440762-.765534.23198-1.322286.92792-1.322286 1.763048 0 1.020712.835128 1.85584 1.85584 1.85584.301574 0 .57995-.069594.835128-.208782-.57995 1.04391-1.693454 1.73985-2.946146 1.73985-.997514 0-1.902236-.440762-2.528582-1.136702.57995-.301574.997514-.92792.997514-1.62386 0-1.020712-.835128-1.85584-1.85584-1.85584s-1.85584.835128-1.85584 1.85584.835128 1.85584 1.85584 1.85584c.069594 0 .11599-.023198.185584-.023198l2.250206 7.400162h24.682672l2.273404-7.400162c.069594 0 .11599.023198.185584.023198 1.020712 0 1.85584-.835128 1.85584-1.85584-.069594-1.020712-.881524-1.85584-1.925434-1.85584" fill="#b59959" fill-rule="nonzero"/>
  <path fill="#fff" d="M50.455378 25.262122h37.00081v20.855002h-37.00081z"/>
  <path fill="none" stroke="#fff" stroke-width=".6913003999999999" d="M50.455378 25.262122h37.00081v20.855002h-37.00081z"/>
</svg>
