<?xml version="1.0" encoding="UTF-8"?><svg id="Livello_2" xmlns="http://www.w3.org/2000/svg" viewBox="0 0 134.94 43.69"><defs><style>.cls-1{font-family:Roboto-Black, Roboto;font-size:12px;font-weight:800;}.cls-1,.cls-2{fill:#e4121c;}.cls-3{letter-spacing:0em;}.cls-4{fill:none;stroke:#e4121c;stroke-width:4px;}.cls-5{letter-spacing:-.01em;}</style></defs><g id="Livello_1-2"><rect class="cls-4" x="2" y="2" width="130.94" height="39.69" rx="17.2" ry="17.2"/><text class="cls-1" transform="translate(43.31 18.15)"><tspan x="0" y="0">PROGRAMMA</tspan><tspan x="0" y="14.4">COMPL</tspan><tspan class="cls-3" x="40.99" y="14.4">E</tspan><tspan class="cls-5" x="47.82" y="14.4">T</tspan><tspan x="55.22" y="14.4">O</tspan></text><path class="cls-2" d="m25.87,11.56c0-.59-.47-1.06-1.06-1.06s-1.06.47-1.06,1.06v1.77h-1.77c-1.56,0-2.84,1.27-2.84,2.84v14.18c0,1.56,1.27,2.84,2.84,2.84h14.18c1.56,0,2.84-1.27,2.84-2.84v-14.18c0-1.56-1.27-2.84-2.84-2.84h-1.77v-1.77c0-.59-.47-1.06-1.06-1.06s-1.06.47-1.06,1.06v1.77h-6.38v-1.77Zm-4.61,7.44h15.6v11.34c0,.39-.32.71-.71.71h-14.18c-.39,0-.71-.32-.71-.71v-11.34Z"/></g></svg>